# xmcd CD database file
#
# Track frame offsets:
#	150
#	34057
#	67787
#	102400
#	132349
#	160743
#	190706
#	219941
#	248173
#	275795
#	301394
#
# Disc length: 4332 seconds
#
# Revision: 0
# Processed by: cddbd v1.5.1PL2 Copyright (c) Steve Scherf et al.
# Submitted via: CDex 1.51
#
DISCID=9510ea0b
DTITLE=Lee Morgan and Wayne Shorter - The Complete Vee Jay Sessions [CD2]
DYEAR=1900
DGENRE=Jazz
TTITLE0=Mogie (1st Alt Tk)
TTITLE1=Mogie (2nd Alt Tk)
TTITLE2=Mogie
TTITLE3=Off Spring (Alt Tk)
TTITLE4=Off Spring
TTITLE5=Bess (Alt Tk)
TTITLE6=Bess
TTITLE7=Running Brook (Alt Tk)
TTITLE8=Running Brook
TTITLE9=Terrible T (Alt Tk)
TTITLE10=Terrible T
EXTD=
EXTT0=
EXTT1=
EXTT2=
EXTT3=
EXTT4=
EXTT5=
EXTT6=
EXTT7=
EXTT8=
EXTT9=
EXTT10=
PLAYORDER=
